<svg class="icon" height="32" width="32px" viewBox="0 0 1024 1024" xmlns="http://www.w3.org/2000/svg">
    <path d="M512 512m-512 0a512 512 0 1 0 1024 0 512 512 0 1 0-1024 0Z" fill="#33C7FC">
    </path>
    <path d="M324.408781 655.018925C505.290126 655.018925 651.918244 508.387706 651.918244 327.509463c0-152.138029-103.733293-280.047334-244.329811-316.853972C205.813923 52.463528 47.497011 213.017581 8.987325 415.981977 47.587706 553.880127 174.183098 655.018925 324.408781 655.018925z" fill="#FFFFFF" fill-opacity=".2">
    </path>
    <path d="M512 1024c282.766631 0 512-229.233369 512-512 0-31.765705-2.891385-62.853911-8.433853-93.018889C928.057169 336.0999 809.874701 285.26268 679.824375 285.26268c-269.711213 0-488.357305 218.645317-488.357305 488.357305 0 54.959576 9.084221 107.802937 25.822474 157.10377C300.626556 989.489417 402.283167 1024 512 1024z" fill="#FFFFFF" fill-opacity=".15">
    </path>
    <path d="M732.535958 756.566238c36.389596 0 65.889478-29.499882 65.889477-65.889478 0 36.389596 29.502983 65.889478 65.889478 65.889478-17.053747 0-65.889478 29.502983-65.889478 65.889477 0-36.386495-29.499882-65.889478-65.889477-65.889477zM159.685087 247.279334c25.686819 0 46.51022-20.8234 46.51022-46.51022 0 25.686819 20.8234 46.51022 46.510219 46.51022-12.03607 0-46.51022 20.8234-46.510219 46.510219 0-25.686819-20.8234-46.51022-46.51022-46.510219z" fill="#FFFFFF" fill-opacity=".5">
    </path>
    <path d="M206.195307 333.32324c8.562531 0 15.503407-6.940875 15.503406-15.503407 0 8.562531 6.940875 15.503407 15.503407 15.503407-4.012282 0-15.503407 6.940875-15.503407 15.503406 0-8.562531-6.940875-15.503407-15.503406-15.503406z" fill="#FFFFFF" fill-opacity=".3">
    </path>
    <path d="M358.903861 272.084784h-19.379258c-17.126613 0-31.006813 13.575558-31.006813 30.322338v419.960926C308.51779 739.114828 322.397989 752.690386 339.524603 752.690386h19.379258V272.084784zM378.283119 752.690386h306.967449c17.126613 0 31.006813-13.575558 31.006813-30.322338V302.407122C716.257381 285.660342 702.377181 272.084784 685.250568 272.084784H378.283119v480.605602z" fill="#FFFFFF">
    </path>
    <path d="M628.901886 437.200715l-29.596778-23.61634a15.706501 15.706501 0 0 0-22.034216 2.206135L465.340948 549.624442a16.028972 16.028972 0 0 0-3.34176 6.731579l-8.893529 39.5957a15.993314 15.993314 0 0 0 5.381233 15.894868 15.834404 15.834404 0 0 0 6.348645 3.1875c2.330162 0.5682 4.759546 0.599982 7.104436 0.093796a14.47398 14.47398 0 0 0 3.115409-1.04648l40.98248-18.327352a15.801072 15.801072 0 0 0 5.66417-4.327776l109.550946-131.458035a16.045251 16.045251 0 0 0 1.667391-17.79791 16.073157 16.073157 0 0 0-4.018483-4.828536v-0.141081z" fill="#51CFFC">
    </path>
</svg>