<svg width="24px" height="24px" viewbox="0 0 1024 1024" xmlns="http://www.w3.org/2000/svg">
    <path d="M862 902c0 16.569-13.431 30-30 30H192c-16.569 0-30-13.431-30-30V122c0-16.569 13.431-30 30-30h476l194 194v616z" fill="#4895FF">
    </path>
    <path d="M862 286H698c-16.569 0-30-13.431-30-30V92" fill="#FFFFFF" fill-opacity=".296">
    </path>
    <path d="M290 349m37 0l224.931 0q37 0 37 37l0 0q0 37-37 37l-224.931 0q-37 0-37-37l0 0q0-37 37-37Z" fill="#FFFFFF">
    </path>
    <path d="M290 511m37 0l370 0q37 0 37 37l0 0q0 37-37 37l-370 0q-37 0-37-37l0 0q0-37 37-37Z" fill="#FFFFFF">
    </path>
    <path d="M290 673m37 0l370 0q37 0 37 37l0 0q0 37-37 37l-370 0q-37 0-37-37l0 0q0-37 37-37Z" fill="#FFFFFF">
    </path>
</svg>