<svg fill="none" width="24" height="24" viewbox="0 0 24 24" width="24" xmlns="http://www.w3.org/2000/svg" xmlns:xlink="http://www.w3.org/1999/xlink">
    <path d="M21.5314 20.6953L2.44516 20.6953C1.93542 20.6953 1.52344 20.3289 1.52344 19.8756L1.52344 6.49155C1.52344 6.03825 1.93542 5.67188 2.44516 5.67188L21.5314 5.67188C22.0411 5.67188 22.4531 6.03825 22.4531 6.49155L22.4531 19.8756C22.4531 20.3269 22.0388 20.6953 21.5314 20.6953Z" fill="#FFE9B4">
    </path>
    <path d="M12 9.63281L1.52344 9.63281L1.52344 4.93055C1.52344 4.42024 1.93589 4.00781 2.4462 4.00781L9.6162 4.00781C10.024 4.00781 10.3828 4.27345 10.4993 4.66491L12 9.63281Z" fill="#FFB02C">
    </path>
    <path d="M21.5314 20.6953L2.44516 20.6953C1.93542 20.6953 1.52344 20.2833 1.52344 19.7735L1.52344 7.85934C1.52344 7.34953 1.93542 6.9375 2.44516 6.9375L21.5314 6.9375C22.0411 6.9375 22.4531 7.34953 22.4531 7.85934L22.4531 19.7735C22.4531 20.2809 22.0388 20.6953 21.5314 20.6953Z" fill="#FFCA28">
    </path>
</svg>
