<svg fill="none" width="24" height="24" viewbox="0 0 24 24" width="24" xmlns="http://www.w3.org/2000/svg" xmlns:xlink="http://www.w3.org/1999/xlink">
    <path d="M21.5314 20.6953L2.44516 20.6953C1.93542 20.6953 1.52344 20.3289 1.52344 19.8756L1.52344 6.49155C1.52344 6.03825 1.93542 5.67188 2.44516 5.67188L21.5314 5.67188C22.0411 5.67188 22.4531 6.03825 22.4531 6.49155L22.4531 19.8756C22.4531 20.3269 22.0388 20.6953 21.5314 20.6953Z" fill="#FFE9B4">
    </path>
    <path d="M12 9.63281L1.52344 9.63281L1.52344 4.93055C1.52344 4.42024 1.93589 4.00781 2.4462 4.00781L9.6162 4.00781C10.024 4.00781 10.3828 4.27345 10.4993 4.66491L12 9.63281Z" fill="#FFB02C">
    </path>
    <path d="M3.99725 6.99725L19.9973 6.99725C20.5495 6.99725 20.9973 7.44497 20.9973 7.99725L20.9973 10.9973C20.9973 11.5495 20.5495 11.9973 19.9973 11.9973L3.99725 11.9973C3.44497 11.9973 2.99725 11.5495 2.99725 10.9973L2.99725 7.99725C2.99725 7.44497 3.44497 6.99725 3.99725 6.99725Z" fill="#FFFFFF">
    </path>
    <path d="M21.528 20.7L2.44175 20.7C1.932 20.7 1.52002 20.3478 1.52002 19.912L1.52002 9.72798C1.52002 9.2922 1.932 8.94 2.44175 8.94L21.528 8.94C22.0377 8.94 22.4497 9.2922 22.4497 9.72798L22.4497 19.912C22.4497 20.3458 22.0354 20.7 21.528 20.7Z" fill="#FFCA28">
    </path>
</svg>
