<svg height="24" viewBox="0 0 24 24" width="24" xmlns="http://www.w3.org/2000/svg">
    <path d="M4.63207 1.5C3.73047 1.5 3 2.24589 3 3.16504L3 20.833C3 21.7528 3.73047 22.498 4.63207 22.498L19.3554 22.498C20.2564 22.498 20.9875 21.7528 20.9875 20.833L20.9875 8.16473L14.9073 1.5L4.63207 1.5L4.63207 1.5Z"
          fill="#4DA6FF"/>
    <path d="M16.2874 10C16.2874 10.0082 16.2873 10.0164 16.2869 10.0246C16.2865 10.0327 16.286 10.0409 16.2852 10.049C16.2845 10.0572 16.2835 10.0653 16.2824 10.0734C16.2813 10.0815 16.28 10.0896 16.2785 10.0976C16.2771 10.1056 16.2754 10.1136 16.2735 10.1215C16.2717 10.1295 16.2697 10.1374 16.2675 10.1452C16.2653 10.153 16.2629 10.1608 16.2603 10.1685C16.2578 10.1762 16.255 10.1838 16.2521 10.1914C16.2492 10.199 16.2462 10.2064 16.2429 10.2138C16.2397 10.2212 16.2363 10.2285 16.2327 10.2357C16.2291 10.243 16.2254 10.2501 16.2215 10.2571C16.2176 10.2641 16.2135 10.271 16.2093 10.2778C16.2051 10.2846 16.2007 10.2913 16.1962 10.2979C16.1917 10.3045 16.187 10.3109 16.1822 10.3173C16.1774 10.3236 16.1724 10.3298 16.1673 10.3359C16.1622 10.3419 16.157 10.3478 16.1516 10.3536C16.1463 10.3594 16.1408 10.3651 16.1351 10.3705C16.1295 10.376 16.1238 10.3814 16.1179 10.3866C16.1121 10.3918 16.1061 10.3968 16.1 10.4017C16.0939 10.4066 16.0877 10.4113 16.0814 10.4158C16.0751 10.4204 16.0686 10.4247 16.0622 10.4289C16.0556 10.4331 16.049 10.4372 16.0424 10.441C16.0357 10.4449 16.0289 10.4486 16.022 10.4521C16.0152 10.4556 16.0082 10.4589 16.0012 10.462C15.9942 10.4651 15.9871 10.4681 15.98 10.4708C15.9728 10.4736 15.9656 10.4762 15.9584 10.4786C15.9511 10.4809 15.9438 10.4831 15.9364 10.4851C15.9291 10.4871 15.9217 10.4889 15.9142 10.4905C15.9068 10.4921 15.8993 10.4935 15.8918 10.4947C15.8843 10.4959 15.8768 10.4969 15.8692 10.4977C15.8617 10.4985 15.8541 10.4991 15.8465 10.4995C15.8389 10.4999 15.8314 10.5001 15.8238 10.5001L8.17369 10.5001C8.16609 10.5001 8.15851 10.4999 8.15092 10.4995C8.14334 10.4991 8.13578 10.4985 8.12824 10.4977C8.12069 10.4969 8.11316 10.4959 8.10565 10.4947C8.09815 10.4935 8.09068 10.4921 8.08323 10.4905C8.07579 10.4889 8.06839 10.4871 8.06103 10.4851C8.05366 10.4831 8.04635 10.4809 8.03909 10.4786C8.03183 10.4762 8.02463 10.4736 8.01747 10.4708C8.01033 10.4681 8.00326 10.4651 7.99625 10.462C7.98923 10.4589 7.9823 10.4556 7.97544 10.4521C7.96859 10.4486 7.96181 10.4449 7.95511 10.441C7.94842 10.4372 7.94182 10.4331 7.93533 10.4289C7.92882 10.4247 7.9224 10.4204 7.91608 10.4158C7.90977 10.4113 7.90358 10.4066 7.89749 10.4017C7.89139 10.3968 7.88541 10.3918 7.87954 10.3866C7.87367 10.3814 7.86793 10.376 7.86231 10.3705C7.85669 10.3651 7.8512 10.3594 7.84584 10.3536C7.84046 10.3478 7.83523 10.3419 7.83013 10.3359C7.82504 10.3298 7.82009 10.3236 7.81528 10.3173C7.81046 10.3109 7.80579 10.3045 7.80128 10.2979C7.79676 10.2913 7.79238 10.2846 7.78816 10.2778C7.78395 10.271 7.77989 10.2641 7.77599 10.2571C7.77209 10.2501 7.76836 10.243 7.76478 10.2357C7.7612 10.2285 7.75779 10.2212 7.75454 10.2138C7.75129 10.2064 7.74822 10.199 7.74533 10.1914C7.74242 10.1838 7.73969 10.1762 7.73712 10.1685C7.73457 10.1608 7.7322 10.153 7.72999 10.1452C7.7278 10.1374 7.72577 10.1295 7.72392 10.1215C7.72207 10.1136 7.72041 10.1056 7.71893 10.0976C7.71746 10.0896 7.71616 10.0815 7.71504 10.0734C7.71393 10.0653 7.713 10.0572 7.71226 10.049C7.71152 10.0409 7.71096 10.0327 7.71058 10.0246C7.71021 10.0164 7.71002 10.0082 7.71002 10C7.71002 9.99185 7.71021 9.98367 7.71058 9.97551C7.71096 9.96733 7.71152 9.95917 7.71226 9.95103C7.713 9.94288 7.71393 9.93475 7.71504 9.92665C7.71616 9.91857 7.71747 9.91051 7.71895 9.90248C7.72043 9.89445 7.72209 9.88647 7.72392 9.87853C7.72577 9.87059 7.7278 9.8627 7.72999 9.85487C7.7322 9.84705 7.73457 9.83928 7.73712 9.83158C7.73969 9.82386 7.74242 9.81623 7.74533 9.80867C7.74822 9.80112 7.75129 9.79364 7.75454 9.78623C7.75779 9.77884 7.7612 9.77153 7.76478 9.76432C7.76836 9.75709 7.77209 9.74997 7.77599 9.74297C7.77989 9.73594 7.78395 9.72903 7.78816 9.72223C7.79238 9.71541 7.79676 9.70872 7.80128 9.70216C7.80579 9.69558 7.81046 9.68913 7.81528 9.6828C7.82009 9.67649 7.82504 9.67029 7.83013 9.66422C7.83523 9.65815 7.84046 9.65223 7.84584 9.64645C7.8512 9.64066 7.85669 9.63502 7.86231 9.62953C7.86793 9.62403 7.87367 9.61869 7.87954 9.6135C7.88541 9.60831 7.89139 9.60328 7.89749 9.5984C7.90358 9.59352 7.90977 9.58881 7.91608 9.58427C7.9224 9.57972 7.92882 9.57533 7.93533 9.57112C7.94182 9.56692 7.94842 9.56289 7.95511 9.55903C7.96181 9.55517 7.96859 9.55149 7.97544 9.54799C7.9823 9.5445 7.98923 9.54119 7.99625 9.53805C8.00326 9.53492 8.01033 9.53198 8.01747 9.52923C8.02463 9.52646 8.03183 9.52389 8.03909 9.52151C8.04635 9.51915 8.05366 9.51696 8.06103 9.51497C8.06839 9.51299 8.07579 9.5112 8.08323 9.5096C8.09068 9.50801 8.09815 9.50661 8.10565 9.50541C8.11316 9.5042 8.12069 9.50319 8.12824 9.50239C8.13578 9.5016 8.14334 9.501 8.15092 9.5006C8.15851 9.5002 8.16609 9.5 8.17369 9.5L15.8239 9.5C15.8315 9.5 15.839 9.5002 15.8466 9.5006C15.8542 9.501 15.8618 9.5016 15.8693 9.50242C15.8769 9.50322 15.8844 9.50421 15.8919 9.50541C15.8994 9.50662 15.9069 9.50803 15.9143 9.50962C15.9218 9.51122 15.9292 9.51301 15.9365 9.51499C15.9439 9.51699 15.9512 9.51917 15.9585 9.52156C15.9657 9.52392 15.9729 9.52649 15.9801 9.52925C15.9872 9.53201 15.9943 9.53496 16.0013 9.53808C16.0083 9.54121 16.0152 9.54453 16.0221 9.54803C16.0289 9.55154 16.0357 9.55522 16.0424 9.55908C16.0491 9.56294 16.0557 9.56697 16.0622 9.57116C16.0687 9.57538 16.0751 9.57975 16.0814 9.58429C16.0877 9.58885 16.0939 9.59356 16.1 9.59844C16.1061 9.6033 16.1121 9.60834 16.118 9.61354C16.1238 9.61873 16.1296 9.62408 16.1352 9.62958C16.1408 9.63506 16.1463 9.6407 16.1517 9.6465C16.157 9.65228 16.1623 9.6582 16.1674 9.66426C16.1724 9.67032 16.1774 9.67652 16.1822 9.68285C16.187 9.68917 16.1917 9.69563 16.1962 9.70221C16.2007 9.70877 16.2051 9.71545 16.2093 9.72225C16.2135 9.72907 16.2176 9.73598 16.2215 9.74299C16.2254 9.75001 16.2291 9.75713 16.2327 9.76434C16.2363 9.77156 16.2397 9.77887 16.2429 9.78628C16.2462 9.79367 16.2493 9.80114 16.2521 9.8087C16.255 9.81627 16.2578 9.8239 16.2603 9.8316C16.2629 9.83931 16.2653 9.84707 16.2675 9.85489C16.2697 9.86273 16.2717 9.87061 16.2735 9.87855C16.2754 9.88649 16.2771 9.89447 16.2785 9.9025C16.28 9.91051 16.2813 9.91857 16.2824 9.92667C16.2835 9.93476 16.2845 9.94288 16.2852 9.95103C16.286 9.95917 16.2865 9.96733 16.2869 9.97551C16.2873 9.98368 16.2874 9.99186 16.2874 10ZM16.2874 13.7504C16.2874 13.7586 16.2873 13.7667 16.2869 13.7749C16.2865 13.7831 16.286 13.7913 16.2852 13.7994C16.2845 13.8075 16.2835 13.8157 16.2824 13.8237C16.2813 13.8318 16.28 13.8399 16.2785 13.8479C16.2771 13.8559 16.2754 13.8639 16.2735 13.8719C16.2717 13.8798 16.2697 13.8877 16.2675 13.8955C16.2653 13.9034 16.2629 13.9111 16.2603 13.9188C16.2578 13.9265 16.255 13.9342 16.2521 13.9417C16.2492 13.9493 16.2462 13.9568 16.2429 13.9642C16.2397 13.9716 16.2363 13.9789 16.2327 13.9861C16.2291 13.9933 16.2254 14.0004 16.2215 14.0075C16.2176 14.0145 16.2135 14.0214 16.2093 14.0282C16.2051 14.035 16.2007 14.0417 16.1962 14.0483C16.1917 14.0548 16.187 14.0613 16.1822 14.0676C16.1774 14.0739 16.1724 14.0801 16.1673 14.0862C16.1622 14.0922 16.157 14.0982 16.1516 14.104C16.1463 14.1098 16.1408 14.1154 16.1351 14.1209C16.1295 14.1264 16.1238 14.1317 16.1179 14.1369C16.1121 14.1421 16.1061 14.1471 16.1 14.152C16.0939 14.1569 16.0877 14.1616 16.0814 14.1662C16.0751 14.1707 16.0686 14.1751 16.0622 14.1793C16.0556 14.1835 16.049 14.1875 16.0424 14.1914C16.0357 14.1952 16.0289 14.1989 16.022 14.2024C16.0152 14.2059 16.0082 14.2092 16.0012 14.2124C15.9942 14.2155 15.9871 14.2184 15.98 14.2212C15.9728 14.2239 15.9656 14.2265 15.9584 14.2289C15.9511 14.2313 15.9438 14.2335 15.9364 14.2354C15.9291 14.2374 15.9217 14.2392 15.9142 14.2408C15.9068 14.2424 15.8993 14.2438 15.8918 14.245C15.8843 14.2462 15.8768 14.2472 15.8692 14.248C15.8617 14.2488 15.8541 14.2494 15.8465 14.2498C15.8389 14.2502 15.8314 14.2504 15.8238 14.2504L8.17369 14.2504C8.16609 14.2504 8.15851 14.2502 8.15092 14.2498C8.14334 14.2494 8.13578 14.2488 8.12824 14.248C8.12069 14.2472 8.11316 14.2462 8.10565 14.245C8.09815 14.2438 8.09068 14.2424 8.08323 14.2408C8.07579 14.2392 8.06839 14.2374 8.06103 14.2354C8.05366 14.2335 8.04635 14.2313 8.03909 14.2289C8.03183 14.2265 8.02463 14.2239 8.01747 14.2212C8.01033 14.2184 8.00326 14.2155 7.99625 14.2124C7.98923 14.2092 7.9823 14.2059 7.97544 14.2024C7.96859 14.1989 7.96181 14.1952 7.95511 14.1914C7.94842 14.1875 7.94182 14.1835 7.93533 14.1793C7.92882 14.1751 7.9224 14.1707 7.91608 14.1662C7.90977 14.1616 7.90358 14.1569 7.89749 14.152C7.89139 14.1471 7.88541 14.1421 7.87954 14.1369C7.87367 14.1317 7.86793 14.1264 7.86231 14.1209C7.85669 14.1154 7.8512 14.1098 7.84584 14.104C7.84046 14.0982 7.83523 14.0922 7.83013 14.0862C7.82504 14.0801 7.82009 14.0739 7.81528 14.0676C7.81046 14.0613 7.80579 14.0548 7.80128 14.0483C7.79676 14.0417 7.79238 14.035 7.78816 14.0282C7.78395 14.0214 7.77989 14.0145 7.77599 14.0075C7.77209 14.0004 7.76836 13.9933 7.76478 13.9861C7.7612 13.9789 7.75779 13.9716 7.75454 13.9642C7.75129 13.9568 7.74822 13.9493 7.74533 13.9417C7.74242 13.9342 7.73969 13.9265 7.73712 13.9188C7.73457 13.9111 7.7322 13.9034 7.72999 13.8955C7.7278 13.8877 7.72577 13.8798 7.72392 13.8719C7.72207 13.8639 7.72041 13.8559 7.71893 13.8479C7.71746 13.8399 7.71616 13.8318 7.71504 13.8237C7.71393 13.8157 7.713 13.8075 7.71226 13.7994C7.71152 13.7913 7.71096 13.7831 7.71058 13.7749C7.71021 13.7667 7.71002 13.7586 7.71002 13.7504C7.71002 13.7422 7.71021 13.734 7.71058 13.7258C7.71096 13.7177 7.71152 13.7095 7.71226 13.7014C7.713 13.6932 7.71393 13.6851 7.71504 13.677C7.71616 13.6689 7.71747 13.6608 7.71895 13.6528C7.72043 13.6448 7.72209 13.6368 7.72392 13.6289C7.72577 13.6209 7.7278 13.613 7.72999 13.6052C7.7322 13.5974 7.73457 13.5896 7.73712 13.5819C7.73969 13.5742 7.74242 13.5666 7.74533 13.559C7.74822 13.5515 7.75129 13.544 7.75454 13.5366C7.75779 13.5292 7.7612 13.5219 7.76478 13.5147C7.76836 13.5074 7.77209 13.5003 7.77599 13.4933C7.77989 13.4863 7.78395 13.4794 7.78816 13.4726C7.79238 13.4658 7.79676 13.4591 7.80128 13.4525C7.80579 13.4459 7.81046 13.4395 7.81528 13.4332C7.82009 13.4268 7.82504 13.4206 7.83013 13.4146C7.83523 13.4085 7.84046 13.4026 7.84584 13.3968C7.8512 13.391 7.85669 13.3854 7.86231 13.3799C7.86793 13.3744 7.87367 13.369 7.87954 13.3638C7.88541 13.3586 7.89139 13.3536 7.89749 13.3487C7.90358 13.3439 7.90977 13.3391 7.91608 13.3346C7.9224 13.3301 7.92882 13.3257 7.93533 13.3215C7.94182 13.3173 7.94842 13.3132 7.95511 13.3094C7.96181 13.3055 7.96859 13.3018 7.97544 13.2983C7.9823 13.2948 7.98923 13.2915 7.99625 13.2884C8.00326 13.2853 8.01033 13.2823 8.01747 13.2796C8.02463 13.2768 8.03183 13.2742 8.03909 13.2719C8.04635 13.2695 8.05366 13.2673 8.06103 13.2653C8.06839 13.2633 8.07579 13.2615 8.08323 13.2599C8.09068 13.2583 8.09815 13.2569 8.10565 13.2557C8.11316 13.2545 8.12069 13.2535 8.12824 13.2527C8.13578 13.2519 8.14334 13.2513 8.15092 13.2509C8.15851 13.2505 8.16609 13.2503 8.17369 13.2503L15.8239 13.2503C15.8315 13.2503 15.839 13.2505 15.8466 13.2509C15.8542 13.2513 15.8618 13.2519 15.8693 13.2527C15.8769 13.2536 15.8844 13.2546 15.8919 13.2558C15.8994 13.257 15.9069 13.2584 15.9143 13.26C15.9218 13.2616 15.9292 13.2633 15.9365 13.2653C15.9439 13.2673 15.9512 13.2695 15.9585 13.2719C15.9657 13.2743 15.9729 13.2768 15.9801 13.2796C15.9872 13.2824 15.9943 13.2853 16.0013 13.2884C16.0083 13.2916 16.0152 13.2949 16.0221 13.2984C16.0289 13.3019 16.0357 13.3055 16.0424 13.3094C16.0491 13.3133 16.0557 13.3173 16.0622 13.3215C16.0687 13.3257 16.0751 13.3301 16.0814 13.3346C16.0877 13.3392 16.0939 13.3439 16.1 13.3488C16.1061 13.3536 16.1121 13.3587 16.118 13.3639C16.1238 13.3691 16.1296 13.3744 16.1352 13.3799C16.1408 13.3854 16.1463 13.391 16.1517 13.3968C16.157 13.4026 16.1623 13.4086 16.1674 13.4146C16.1724 13.4207 16.1774 13.4269 16.1822 13.4332C16.187 13.4395 16.1917 13.446 16.1962 13.4525C16.2007 13.4591 16.2051 13.4658 16.2093 13.4726C16.2135 13.4794 16.2176 13.4863 16.2215 13.4933C16.2254 13.5004 16.2291 13.5075 16.2327 13.5147C16.2363 13.5219 16.2397 13.5292 16.2429 13.5366C16.2462 13.544 16.2493 13.5515 16.2521 13.559C16.255 13.5666 16.2578 13.5742 16.2603 13.5819C16.2629 13.5896 16.2653 13.5974 16.2675 13.6052C16.2697 13.6131 16.2717 13.621 16.2735 13.6289C16.2754 13.6368 16.2771 13.6448 16.2785 13.6528C16.28 13.6609 16.2813 13.6689 16.2824 13.677C16.2835 13.6851 16.2845 13.6932 16.2852 13.7014C16.286 13.7095 16.2865 13.7177 16.2869 13.7258C16.2873 13.734 16.2874 13.7422 16.2874 13.7504ZM16.2874 17.7506C16.2874 17.7588 16.2873 17.767 16.2869 17.7752C16.2865 17.7834 16.286 17.7915 16.2852 17.7996C16.2845 17.8078 16.2835 17.8159 16.2824 17.824C16.2813 17.8321 16.28 17.8401 16.2785 17.8482C16.2771 17.8562 16.2754 17.8642 16.2735 17.8721C16.2717 17.8801 16.2697 17.888 16.2675 17.8958C16.2653 17.9036 16.2629 17.9114 16.2603 17.9191C16.2578 17.9268 16.255 17.9344 16.2521 17.942C16.2492 17.9495 16.2462 17.957 16.2429 17.9644C16.2397 17.9718 16.2363 17.9791 16.2327 17.9864C16.2291 17.9936 16.2254 18.0007 16.2215 18.0077C16.2176 18.0147 16.2135 18.0216 16.2093 18.0284C16.2051 18.0352 16.2007 18.0419 16.1962 18.0485C16.1917 18.0551 16.187 18.0615 16.1822 18.0679C16.1774 18.0742 16.1724 18.0804 16.1673 18.0864C16.1622 18.0925 16.157 18.0984 16.1516 18.1042C16.1463 18.11 16.1408 18.1156 16.1351 18.1211C16.1295 18.1266 16.1238 18.132 16.1179 18.1372C16.1121 18.1424 16.1061 18.1474 16.1 18.1523C16.0939 18.1571 16.0877 18.1619 16.0814 18.1664C16.0751 18.171 16.0686 18.1753 16.0622 18.1795C16.0556 18.1837 16.049 18.1878 16.0424 18.1916C16.0357 18.1955 16.0289 18.1992 16.022 18.2027C16.0152 18.2062 16.0082 18.2095 16.0012 18.2126C15.9942 18.2157 15.9871 18.2187 15.98 18.2215C15.9728 18.2242 15.9656 18.2268 15.9584 18.2291C15.9511 18.2315 15.9438 18.2337 15.9364 18.2357C15.9291 18.2377 15.9217 18.2395 15.9142 18.2411C15.9068 18.2427 15.8993 18.244 15.8918 18.2453C15.8843 18.2465 15.8768 18.2475 15.8692 18.2483C15.8617 18.2491 15.8541 18.2497 15.8465 18.2501C15.8389 18.2505 15.8314 18.2507 15.8238 18.2507L8.17369 18.2507C8.16609 18.2507 8.15851 18.2505 8.15092 18.2501C8.14334 18.2497 8.13578 18.2491 8.12824 18.2483C8.12069 18.2475 8.11316 18.2465 8.10565 18.2453C8.09815 18.244 8.09068 18.2427 8.08323 18.2411C8.07579 18.2395 8.06839 18.2377 8.06103 18.2357C8.05366 18.2337 8.04635 18.2315 8.03909 18.2291C8.03183 18.2268 8.02463 18.2242 8.01747 18.2215C8.01033 18.2187 8.00326 18.2157 7.99625 18.2126C7.98923 18.2095 7.9823 18.2062 7.97544 18.2027C7.96859 18.1992 7.96181 18.1955 7.95511 18.1916C7.94842 18.1878 7.94182 18.1837 7.93533 18.1795C7.92882 18.1753 7.9224 18.171 7.91608 18.1664C7.90977 18.1619 7.90358 18.1571 7.89749 18.1523C7.89139 18.1474 7.88541 18.1424 7.87954 18.1372C7.87367 18.132 7.86793 18.1266 7.86231 18.1211C7.85669 18.1156 7.8512 18.11 7.84584 18.1042C7.84046 18.0984 7.83523 18.0925 7.83013 18.0864C7.82504 18.0804 7.82009 18.0742 7.81528 18.0679C7.81046 18.0615 7.80579 18.0551 7.80128 18.0485C7.79676 18.0419 7.79238 18.0352 7.78816 18.0284C7.78395 18.0216 7.77989 18.0147 7.77599 18.0077C7.77209 18.0007 7.76836 17.9936 7.76478 17.9863C7.7612 17.9791 7.75779 17.9718 7.75454 17.9644C7.75129 17.957 7.74822 17.9495 7.74533 17.942C7.74242 17.9344 7.73969 17.9268 7.73712 17.9191C7.73457 17.9114 7.7322 17.9036 7.72999 17.8958C7.7278 17.888 7.72577 17.8801 7.72392 17.8721C7.72207 17.8642 7.72041 17.8562 7.71893 17.8482C7.71746 17.8401 7.71616 17.8321 7.71504 17.824C7.71393 17.8159 7.713 17.8078 7.71226 17.7996C7.71152 17.7915 7.71096 17.7834 7.71058 17.7752C7.71021 17.767 7.71002 17.7588 7.71002 17.7506C7.71002 17.7424 7.71021 17.7343 7.71058 17.7261C7.71096 17.7179 7.71152 17.7098 7.71226 17.7016C7.713 17.6935 7.71393 17.6854 7.71504 17.6773C7.71616 17.6692 7.71747 17.6611 7.71895 17.6531C7.72043 17.645 7.72209 17.6371 7.72392 17.6291C7.72577 17.6212 7.7278 17.6133 7.72999 17.6055C7.7322 17.5976 7.73457 17.5899 7.73712 17.5822C7.73969 17.5745 7.74242 17.5668 7.74533 17.5593C7.74822 17.5517 7.75129 17.5442 7.75454 17.5368C7.75779 17.5294 7.7612 17.5221 7.76478 17.5149C7.76836 17.5077 7.77209 17.5006 7.77599 17.4936C7.77989 17.4865 7.78395 17.4796 7.78816 17.4728C7.79238 17.466 7.79676 17.4593 7.80128 17.4527C7.80579 17.4462 7.81046 17.4397 7.81528 17.4334C7.82009 17.4271 7.82504 17.4209 7.83013 17.4148C7.83523 17.4088 7.84046 17.4028 7.84584 17.397C7.8512 17.3913 7.85669 17.3856 7.86231 17.3801C7.86793 17.3746 7.87367 17.3693 7.87954 17.3641C7.88541 17.3589 7.89139 17.3539 7.89749 17.349C7.90358 17.3441 7.90977 17.3394 7.91608 17.3349C7.9224 17.3303 7.92882 17.3259 7.93533 17.3217C7.94182 17.3175 7.94842 17.3135 7.95511 17.3096C7.96181 17.3058 7.96859 17.3021 7.97544 17.2986C7.9823 17.2951 7.98923 17.2918 7.99625 17.2886C8.00326 17.2855 8.01033 17.2826 8.01747 17.2798C8.02463 17.277 8.03183 17.2745 8.03909 17.2721C8.04635 17.2697 8.05366 17.2676 8.06103 17.2656C8.06839 17.2636 8.07579 17.2618 8.08323 17.2602C8.09068 17.2586 8.09815 17.2572 8.10565 17.256C8.11316 17.2548 8.12069 17.2538 8.12824 17.253C8.13578 17.2522 8.14334 17.2516 8.15092 17.2512C8.15851 17.2508 8.16609 17.2506 8.17369 17.2506L15.8239 17.2506C15.8315 17.2506 15.839 17.2508 15.8466 17.2512C15.8542 17.2516 15.8618 17.2522 15.8693 17.253C15.8769 17.2538 15.8844 17.2548 15.8919 17.256C15.8994 17.2572 15.9069 17.2586 15.9143 17.2602C15.9218 17.2618 15.9292 17.2636 15.9365 17.2656C15.9439 17.2676 15.9512 17.2698 15.9585 17.2721C15.9657 17.2745 15.9729 17.2771 15.9801 17.2798C15.9872 17.2826 15.9943 17.2856 16.0013 17.2887C16.0083 17.2918 16.0152 17.2951 16.0221 17.2986C16.0289 17.3021 16.0357 17.3058 16.0424 17.3097C16.0491 17.3135 16.0557 17.3176 16.0622 17.3218C16.0687 17.326 16.0751 17.3304 16.0814 17.3349C16.0877 17.3394 16.0939 17.3442 16.1 17.349C16.1061 17.3539 16.1121 17.3589 16.118 17.3641C16.1238 17.3693 16.1296 17.3747 16.1352 17.3802C16.1408 17.3857 16.1463 17.3913 16.1517 17.3971C16.157 17.4029 16.1623 17.4088 16.1674 17.4149C16.1724 17.4209 16.1774 17.4271 16.1822 17.4334C16.187 17.4398 16.1917 17.4462 16.1962 17.4528C16.2007 17.4594 16.2051 17.4661 16.2093 17.4729C16.2135 17.4797 16.2176 17.4866 16.2215 17.4936C16.2254 17.5006 16.2291 17.5077 16.2327 17.5149C16.2363 17.5222 16.2397 17.5295 16.2429 17.5369C16.2462 17.5442 16.2493 17.5517 16.2521 17.5593C16.255 17.5669 16.2578 17.5745 16.2603 17.5822C16.2629 17.5899 16.2653 17.5977 16.2675 17.6055C16.2697 17.6133 16.2717 17.6212 16.2736 17.6291C16.2754 17.6371 16.2771 17.6451 16.2785 17.6531C16.28 17.6611 16.2813 17.6692 16.2824 17.6773C16.2835 17.6854 16.2845 17.6935 16.2852 17.7016C16.286 17.7098 16.2865 17.7179 16.2869 17.7261C16.2873 17.7343 16.2874 17.7424 16.2874 17.7506Z"
          fill="#A6D3FF"/>
    <path d="M21 8.17269L21 8.50055L16.8828 8.50055C16.8828 8.50055 14.8524 8.08745 14.9113 6.30157C14.9113 6.30157 14.9782 8.17269 16.8426 8.17269L21 8.17269Z"
          fill="#0089E9"/>
    <path d="M14.9193 1.5L14.9193 6.27401C14.9193 6.81696 15.2744 8.17267 16.8828 8.17267L21 8.17267L14.9193 1.5Z"
          fill="#A6D3FF"/>
</svg>
