<svg xmlns="http://www.w3.org/2000/svg" width="24" height="24" viewBox="0 0 24 24" fill="none"
     data-folder-open="M23.25 8.44737L23.25 20.3026C23.25 20.6862 22.9125 21 22.5 21L1.5 21C1.0875 21 0.75 20.6862 0.75 20.3026L0.75 7.75L22.5 7.75C22.9125 7.75 23.25 8.06382 23.25 8.44737Z"
     data-folder-close="M23.25 7.5L23.25 20.25C23.25 20.6625 22.9125 21 22.5 21L1.5 21C1.0875 21 0.75 20.6625 0.75 20.25L0.75 6.75L22.5 6.75C22.9125 6.75 23.25 7.0875 23.25 7.5Z"
     data-white-open="M3.29998 5.84998L20.7 5.84998C21.5 5.84998 21.9 6.24998 21.9 7.04998L21.9 17.85C21.9 18.65 21.5 19.05 20.7 19.05L3.29998 19.05C2.49998 19.05 2.09998 18.65 2.09998 17.85L2.09998 7.04998C2.09998 6.24998 2.49998 5.84998 3.29998 5.84998Z"
     data-white-close="M3.29998 6.85001L20.7 6.85001C21.5 6.85001 21.9 7.25001 21.9 8.05001L21.9 18.85C21.9 19.65 21.5 20.05 20.7 20.05L3.29998 20.05C2.49998 20.05 2.09998 19.65 2.09998 18.85L2.09998 8.05001C2.09998 7.25001 2.49998 6.85001 3.29998 6.85001Z">
    <path d="M12.765 7.5C12.765 7.9125 12.4275 8.25 12.015 8.25C12.015 8.25 12.0075 8.25 12 8.25L1.5 8.25C1.0875 8.25 0.75 7.9125 0.75 7.5L0.75 3.75C0.75 3.3375 1.0875 3 1.5 3L9.75 3C10.0125 3 10.26 3.135 10.395 3.3675L12.5775 7.005C12.69 7.1325 12.765 7.3125 12.765 7.5Z"
          fill="#FE9803"/>
    <path class="white"
          d="M3.29998 6.85001L20.7 6.85001C21.5 6.85001 21.9 7.25001 21.9 8.05001L21.9 18.85C21.9 19.65 21.5 20.05 20.7 20.05L3.29998 20.05C2.49998 20.05 2.09998 19.65 2.09998 18.85L2.09998 8.05001C2.09998 7.25001 2.49998 6.85001 3.29998 6.85001Z"
          fill="#FFFFFF"/>
    <path class="folder"
          d="M23.25 7.5L23.25 20.25C23.25 20.6625 22.9125 21 22.5 21L1.5 21C1.0875 21 0.75 20.6625 0.75 20.25L0.75 6.75L22.5 6.75C22.9125 6.75 23.25 7.0875 23.25 7.5Z"
          fill="#FFC10A"/>
</svg>
